<svg width="32" height="33" viewBox="0 0 32 33" fill="none" xmlns="http://www.w3.org/2000/svg">
<g clip-path="url(#clip0_70_1058)">
<path fill-rule="evenodd" clip-rule="evenodd" d="M0 8.67352H20.6084V12.0481H20.6083V21.5457H14.2106C13.8721 20.1154 12.5869 19.0512 11.0531 19.0512C9.51933 19.0512 8.23412 20.1154 7.89565 21.5457H5.33224V16.634H1.98781e-05V18.134H3.83224V23.0457H7.89565C8.23412 24.4761 9.51933 25.5403 11.0531 25.5403C12.5869 25.5403 13.8721 24.4761 14.2106 23.0457L20.6083 23.0457H22.9797C23.3182 24.4761 24.6034 25.5403 26.1372 25.5403C27.671 25.5403 28.9562 24.4761 29.2947 23.0457H32.3403V16.4968L28.7155 12.0481H22.1084V7.17352H0V8.67352ZM29.2947 21.5457H30.8403V17.0305L28.0028 13.5481H22.1084V21.5457H22.9797C23.3182 20.1154 24.6034 19.0512 26.1372 19.0512C27.671 19.0512 28.9562 20.1154 29.2947 21.5457ZM1.98781e-05 13.4007H15.7374V11.9007H1.98781e-05V13.4007ZM11.0531 24.0403C12.0166 24.0403 12.7977 23.2592 12.7977 22.2957C12.7977 21.3322 12.0166 20.5512 11.0531 20.5512C10.0896 20.5512 9.30853 21.3322 9.30853 22.2957C9.30853 23.2592 10.0896 24.0403 11.0531 24.0403ZM27.8818 22.2957C27.8818 23.2592 27.1007 24.0403 26.1372 24.0403C25.1737 24.0403 24.3926 23.2592 24.3926 22.2957C24.3926 21.3322 25.1737 20.5512 26.1372 20.5512C27.1007 20.5512 27.8818 21.3322 27.8818 22.2957Z" fill="black"/>
</g>
<defs>
<clipPath id="clip0_70_1058">
<rect width="32" height="32" fill="white" transform="translate(0 0.48143)"/>
</clipPath>
</defs>
</svg>
